<svg xmlns="http://www.w3.org/2000/svg" xmlns:xlink="http://www.w3.org/1999/xlink" width="500" zoomAndPan="magnify" viewBox="0 0 375 374.999991" height="500" preserveAspectRatio="xMidYMid meet" version="1.2"><defs><clipPath id="5b91b2ca8b"><path d="M 0 108.316406 L 110.25 108.316406 L 110.25 229 L 0 229 Z M 0 108.316406 "/></clipPath></defs><g id="951e2787af"><g clip-rule="nonzero" clip-path="url(#5b91b2ca8b)"><path style=" stroke:none;fill-rule:evenodd;fill:#ff914d;fill-opacity:1;" d="M 55.421875 132.652344 L 50.554688 127.785156 L 9.738281 168.597656 L 50.554688 209.414062 L 55.417969 204.546875 L 19.472656 168.601562 Z M 110.246094 158.273438 L 100.511719 158.273438 C 85.480469 143.246094 70.449219 128.214844 55.421875 113.183594 L 60.285156 108.316406 C 76.9375 124.96875 93.59375 141.621094 110.246094 158.273438 Z M 110.246094 178.925781 L 100.511719 178.925781 C 85.480469 193.957031 70.449219 208.984375 55.421875 224.015625 L 60.289062 228.882812 C 76.9375 212.230469 93.59375 195.578125 110.246094 178.925781 Z M 50.554688 118.050781 L 90.777344 158.273438 L 81.042969 158.273438 L 60.289062 137.515625 L 29.207031 168.597656 L 60.289062 199.679688 L 81.042969 178.921875 L 90.777344 178.921875 C 77.371094 192.332031 63.960938 205.742188 50.554688 219.148438 L 0.00390625 168.597656 Z M 50.554688 118.050781 "/></g><g style="fill:#004aad;fill-opacity:1;"><g transform="translate(116.997602, 187.736352)"><path style="stroke:none" d="M 30.953125 0 L 27.234375 -9.75 L 10.140625 -9.75 L 6.421875 0 L 1.53125 0 L 16.671875 -38.140625 L 20.65625 -38.140625 L 35.84375 0 Z M 11.4375 -13.234375 L 25.9375 -13.234375 L 18.6875 -32.25 Z M 11.4375 -13.234375 "/></g></g><g style="fill:#004aad;fill-opacity:1;"><g transform="translate(152.235693, 187.736352)"><path style="stroke:none" d="M 14.328125 -28.609375 C 16.472656 -28.609375 18.390625 -28.109375 20.078125 -27.109375 C 21.765625 -26.109375 23.023438 -24.753906 23.859375 -23.046875 L 23.859375 -38.46875 L 28.21875 -38.46875 L 28.21875 0 L 23.859375 0 L 23.859375 -5.71875 C 23.171875 -4.082031 22.023438 -2.65625 20.421875 -1.4375 C 18.828125 -0.226562 16.832031 0.375 14.4375 0.375 C 12.914062 0.375 11.410156 0.09375 9.921875 -0.46875 C 8.429688 -1.03125 7.066406 -1.898438 5.828125 -3.078125 C 4.597656 -4.253906 3.617188 -5.757812 2.890625 -7.59375 C 2.160156 -9.4375 1.796875 -11.628906 1.796875 -14.171875 C 1.796875 -16.671875 2.160156 -18.828125 2.890625 -20.640625 C 3.617188 -22.460938 4.585938 -23.960938 5.796875 -25.140625 C 7.015625 -26.328125 8.367188 -27.203125 9.859375 -27.765625 C 11.347656 -28.328125 12.835938 -28.609375 14.328125 -28.609375 Z M 15.09375 -3.265625 C 16.65625 -3.265625 18.113281 -3.664062 19.46875 -4.46875 C 20.832031 -5.269531 21.941406 -6.476562 22.796875 -8.09375 C 23.648438 -9.707031 24.078125 -11.734375 24.078125 -14.171875 C 24.078125 -16.710938 23.648438 -18.769531 22.796875 -20.34375 C 21.941406 -21.925781 20.832031 -23.085938 19.46875 -23.828125 C 18.113281 -24.578125 16.65625 -24.953125 15.09375 -24.953125 C 13.53125 -24.953125 12.054688 -24.578125 10.671875 -23.828125 C 9.296875 -23.085938 8.179688 -21.914062 7.328125 -20.3125 C 6.472656 -18.71875 6.046875 -16.671875 6.046875 -14.171875 C 6.046875 -11.660156 6.472656 -9.601562 7.328125 -8 C 8.179688 -6.40625 9.296875 -5.21875 10.671875 -4.4375 C 12.054688 -3.65625 13.53125 -3.265625 15.09375 -3.265625 Z M 15.09375 -3.265625 "/></g></g><g style="fill:#004aad;fill-opacity:1;"><g transform="translate(181.537109, 187.736352)"><path style="stroke:none" d="M 30.671875 -38.140625 L 35.578125 -38.140625 L 20.375 0 L 16.40625 0 L 1.25 -38.140625 L 6.109375 -38.140625 L 18.421875 -5.9375 Z M 30.671875 -38.140625 "/></g></g><g style="fill:#004aad;fill-opacity:1;"><g transform="translate(216.230555, 187.736352)"><path style="stroke:none" d="M 3.15625 -38.625 L 7.515625 -38.625 L 7.515625 -34.59375 L 3.15625 -34.59375 Z M 3.15625 -28.328125 L 7.515625 -28.328125 L 7.515625 0 L 3.15625 0 Z M 3.15625 -28.328125 "/></g></g><g style="fill:#004aad;fill-opacity:1;"><g transform="translate(224.78082, 187.736352)"><path style="stroke:none" d="M 20 -21.078125 C 19.519531 -22.566406 18.679688 -23.628906 17.484375 -24.265625 C 16.285156 -24.898438 14.796875 -25.21875 13.015625 -25.21875 C 10.984375 -25.21875 9.410156 -24.789062 8.296875 -23.9375 C 7.191406 -23.09375 6.640625 -22.035156 6.640625 -20.765625 C 6.640625 -19.628906 7.019531 -18.71875 7.78125 -18.03125 C 8.550781 -17.34375 9.804688 -16.800781 11.546875 -16.40625 L 16.125 -15.3125 C 17.875 -14.90625 19.382812 -14.457031 20.65625 -13.96875 C 21.925781 -13.476562 22.90625 -12.757812 23.59375 -11.8125 C 24.28125 -10.875 24.625 -9.535156 24.625 -7.796875 C 24.625 -5.867188 24.085938 -4.304688 23.015625 -3.109375 C 21.941406 -1.910156 20.539062 -1.03125 18.8125 -0.46875 C 17.09375 0.09375 15.234375 0.375 13.234375 0.375 C 10.109375 0.375 7.46875 -0.320312 5.3125 -1.71875 C 3.15625 -3.113281 1.894531 -5.300781 1.53125 -8.28125 L 5.609375 -8.28125 C 6.015625 -6.320312 6.929688 -4.957031 8.359375 -4.1875 C 9.796875 -3.425781 11.441406 -3.046875 13.296875 -3.046875 C 15.222656 -3.046875 16.863281 -3.4375 18.21875 -4.21875 C 19.582031 -5 20.265625 -6.207031 20.265625 -7.84375 C 20.265625 -9.257812 19.828125 -10.25 18.953125 -10.8125 C 18.085938 -11.375 16.851562 -11.835938 15.25 -12.203125 L 10.296875 -13.34375 C 7.679688 -13.96875 5.726562 -14.878906 4.4375 -16.078125 C 3.144531 -17.273438 2.5 -18.875 2.5 -20.875 C 2.5 -23.269531 3.453125 -25.15625 5.359375 -26.53125 C 7.273438 -27.914062 9.828125 -28.609375 13.015625 -28.609375 C 15.960938 -28.609375 18.390625 -27.972656 20.296875 -26.703125 C 22.203125 -25.429688 23.445312 -23.554688 24.03125 -21.078125 Z M 20 -21.078125 "/></g></g><g style="fill:#004aad;fill-opacity:1;"><g transform="translate(248.85361, 187.736352)"><path style="stroke:none" d="M 3.15625 -38.625 L 7.515625 -38.625 L 7.515625 -34.59375 L 3.15625 -34.59375 Z M 3.15625 -28.328125 L 7.515625 -28.328125 L 7.515625 0 L 3.15625 0 Z M 3.15625 -28.328125 "/></g></g><g style="fill:#004aad;fill-opacity:1;"><g transform="translate(257.403875, 187.736352)"><path style="stroke:none" d="M 14.921875 -28.609375 C 16.484375 -28.609375 18.035156 -28.328125 19.578125 -27.765625 C 21.128906 -27.203125 22.546875 -26.328125 23.828125 -25.140625 C 25.117188 -23.960938 26.15625 -22.460938 26.9375 -20.640625 C 27.71875 -18.828125 28.109375 -16.671875 28.109375 -14.171875 C 28.109375 -11.660156 27.71875 -9.488281 26.9375 -7.65625 C 26.15625 -5.820312 25.117188 -4.3125 23.828125 -3.125 C 22.546875 -1.945312 21.128906 -1.066406 19.578125 -0.484375 C 18.035156 0.0859375 16.484375 0.375 14.921875 0.375 C 13.359375 0.375 11.804688 0.0859375 10.265625 -0.484375 C 8.722656 -1.066406 7.316406 -1.945312 6.046875 -3.125 C 4.773438 -4.3125 3.75 -5.820312 2.96875 -7.65625 C 2.1875 -9.488281 1.796875 -11.660156 1.796875 -14.171875 C 1.796875 -16.671875 2.1875 -18.828125 2.96875 -20.640625 C 3.75 -22.460938 4.773438 -23.960938 6.046875 -25.140625 C 7.316406 -26.328125 8.722656 -27.203125 10.265625 -27.765625 C 11.804688 -28.328125 13.359375 -28.609375 14.921875 -28.609375 Z M 23.859375 -14.171875 C 23.859375 -16.671875 23.429688 -18.710938 22.578125 -20.296875 C 21.722656 -21.878906 20.613281 -23.050781 19.25 -23.8125 C 17.894531 -24.570312 16.453125 -24.953125 14.921875 -24.953125 C 13.398438 -24.953125 11.957031 -24.570312 10.59375 -23.8125 C 9.226562 -23.050781 8.117188 -21.878906 7.265625 -20.296875 C 6.421875 -18.710938 6 -16.671875 6 -14.171875 C 6 -11.660156 6.421875 -9.601562 7.265625 -8 C 8.117188 -6.40625 9.226562 -5.21875 10.59375 -4.4375 C 11.957031 -3.65625 13.398438 -3.265625 14.921875 -3.265625 C 16.453125 -3.265625 17.894531 -3.65625 19.25 -4.4375 C 20.613281 -5.21875 21.722656 -6.40625 22.578125 -8 C 23.429688 -9.601562 23.859375 -11.660156 23.859375 -14.171875 Z M 23.859375 -14.171875 "/></g></g><g style="fill:#004aad;fill-opacity:1;"><g transform="translate(285.180275, 187.736352)"><path style="stroke:none" d="M 17.59375 -28.609375 C 19.488281 -28.609375 21.195312 -28.253906 22.71875 -27.546875 C 24.25 -26.835938 25.457031 -25.644531 26.34375 -23.96875 C 27.226562 -22.300781 27.671875 -20.03125 27.671875 -17.15625 L 27.671875 0 L 23.3125 0 L 23.3125 -17 C 23.3125 -19.976562 22.65625 -22.039062 21.34375 -23.1875 C 20.039062 -24.332031 18.320312 -24.90625 16.1875 -24.90625 C 14.40625 -24.90625 12.894531 -24.476562 11.65625 -23.625 C 10.425781 -22.769531 9.472656 -21.769531 8.796875 -20.625 C 8.128906 -19.476562 7.703125 -18.453125 7.515625 -17.546875 L 7.515625 0 L 3.15625 0 L 3.15625 -28.328125 L 7.515625 -28.328125 L 7.515625 -21.734375 C 7.660156 -22.242188 7.976562 -22.878906 8.46875 -23.640625 C 8.957031 -24.410156 9.628906 -25.175781 10.484375 -25.9375 C 11.335938 -26.695312 12.351562 -27.332031 13.53125 -27.84375 C 14.71875 -28.351562 16.070312 -28.609375 17.59375 -28.609375 Z M 17.59375 -28.609375 "/></g></g><g style="fill:#ff914d;fill-opacity:1;"><g transform="translate(313.894677, 187.736352)"><path style="stroke:none" d="M 30.953125 0 L 27.234375 -9.75 L 10.140625 -9.75 L 6.421875 0 L 1.53125 0 L 16.671875 -38.140625 L 20.65625 -38.140625 L 35.84375 0 Z M 11.4375 -13.234375 L 25.9375 -13.234375 L 18.6875 -32.25 Z M 11.4375 -13.234375 "/></g></g><g style="fill:#ff914d;fill-opacity:1;"><g transform="translate(349.132768, 187.736352)"><path style="stroke:none" d="M 7.6875 0 L 3.15625 0 L 3.15625 -38.140625 L 7.6875 -38.140625 Z M 7.6875 0 "/></g></g></g></svg>